<?xml version="1.0" encoding="UTF-8" standalone="no"?><!DOCTYPE svg PUBLIC "-//W3C//DTD SVG 1.1//EN" "http://www.w3.org/Graphics/SVG/1.1/DTD/svg11.dtd"><svg width="100%" height="100%" viewBox="0 0 132 131" version="1.1" xmlns="http://www.w3.org/2000/svg" xmlns:xlink="http://www.w3.org/1999/xlink" xml:space="preserve" xmlns:serif="http://www.serif.com/" style="fill-rule:evenodd; fill:#fff;clip-rule:evenodd;stroke-linejoin:round;stroke-miterlimit:2;"><g><path d="M131.25,16.947l-0,96.314c-0,9.354 -7.594,16.947 -16.947,16.947l-97.356,0c-9.353,0 -16.947,-7.593 -16.947,-16.947l0,-96.314c0,-9.353 7.594,-16.947 16.947,-16.947l97.356,0c9.353,0 16.947,7.594 16.947,16.947Zm-50.12,34.508c-12.759,0 -23.257,10.499 -23.257,23.257l-0,27.134l15.504,-0l0,-27.134c0,-4.252 3.5,-7.752 7.753,-7.752c4.252,0 7.752,3.5 7.752,7.752l0,27.134l15.505,-0l-0,-27.134c-0,-12.758 -10.499,-23.257 -23.257,-23.257Zm-38.762,3.877l-15.505,-0l0,46.514l15.505,-0l-0,-46.514Zm-7.752,-27.134c-4.279,0 -7.753,3.474 -7.753,7.753c0,4.278 3.474,7.752 7.753,7.752c4.278,0 7.752,-3.474 7.752,-7.752c-0,-4.279 -3.474,-7.753 -7.752,-7.753Z"/></g></svg>