<?xml version="1.0" encoding="UTF-8" standalone="no"?><!DOCTYPE svg PUBLIC "-//W3C//DTD SVG 1.1//EN" "http://www.w3.org/Graphics/SVG/1.1/DTD/svg11.dtd"><svg width="100%" height="100%" viewBox="0 0 210 200" version="1.1" xmlns="http://www.w3.org/2000/svg" xmlns:xlink="http://www.w3.org/1999/xlink" xml:space="preserve" xmlns:serif="http://www.serif.com/" style="fill-rule:evenodd;clip-rule:evenodd;stroke-linejoin:round;stroke-miterlimit:2;"><g><g><path d="M61.247,0l0,25.361l-6.299,0c-8.012,0 -14.506,6.495 -14.506,14.507l-0,41.187c-0,8.322 -3.306,16.303 -9.191,22.187c-5.884,5.885 -13.866,9.191 -22.188,9.191l-9.063,-0l0,-25.362l9.064,0c1.595,0 3.126,-0.634 4.254,-1.762c1.128,-1.128 1.762,-2.659 1.762,-4.254l0,-41.187c0,-22.018 17.85,-39.868 39.868,-39.868l6.299,0Z" style="fill:#08f;"/><path d="M38.166,106.717c1.489,3.694 2.276,7.673 2.276,11.733l-0,41.186c-0,8.012 6.494,14.507 14.507,14.507l6.298,-0l0,25.361l-6.299,0c-22.018,0 -39.868,-17.849 -39.868,-39.868l0,-40.25c8.062,-1.265 15.577,-5.052 21.42,-10.895c0.575,-0.575 1.131,-1.167 1.666,-1.774Z" style="fill:#08f;"/></g><g><path d="M148.561,199.504l0,-25.361l6.299,-0c8.012,-0 14.507,-6.495 14.507,-14.507l-0,-41.186c-0,-8.322 3.306,-16.304 9.19,-22.188c5.885,-5.885 13.866,-9.191 22.188,-9.191l9.064,0l-0,25.362l-9.064,-0c-1.596,-0 -3.126,0.634 -4.255,1.762c-1.128,1.128 -1.762,2.659 -1.762,4.255l0,41.186c0,22.019 -17.849,39.868 -39.868,39.868l-6.299,0Z" style="fill:#08f;"/><path d="M171.643,92.787c-1.489,-3.694 -2.276,-7.673 -2.276,-11.732l-0,-41.187c-0,-8.012 -6.495,-14.507 -14.507,-14.507l-6.299,0l0,-25.361l6.299,0c22.019,0 39.868,17.85 39.868,39.868l0,40.25c-8.062,1.265 -15.576,5.052 -21.419,10.895c-0.576,0.576 -1.131,1.167 -1.666,1.774Z" style="fill:#08f;"/></g><path d="M71.765,89.234c5.805,0 10.518,4.713 10.518,10.518c0,5.805 -4.713,10.518 -10.518,10.518c-5.805,-0 -10.518,-4.713 -10.518,-10.518c0,-5.805 4.713,-10.518 10.518,-10.518Zm33.078,0c5.805,0 10.518,4.713 10.518,10.518c0,5.805 -4.713,10.518 -10.518,10.518c-5.805,-0 -10.518,-4.713 -10.518,-10.518c0,-5.805 4.713,-10.518 10.518,-10.518Zm33.2,0c5.805,0 10.518,4.713 10.518,10.518c0,5.805 -4.713,10.518 -10.518,10.518c-5.805,-0 -10.518,-4.713 -10.518,-10.518c0,-5.805 4.713,-10.518 10.518,-10.518Z"/></g></svg>